<svg xmlns="http://www.w3.org/2000/svg" viewBox="0 0 20 20" width="20" height="20">
  <!-- Stem -->
  <path d="M10,20 Q11,14 10,10" stroke="#388E3C" stroke-width="1.5" fill="none" stroke-linecap="round"/>
  <!-- Small leaf -->
  <path d="M10,15 Q6,13 8,17" fill="#4CAF50" opacity="0.6"/>
  <!-- Petals -->
  <path d="M10,3 Q12,5 10,7 Q8,5 10,3Z" fill="#EC407A"/>
  <path d="M6,5.5 Q8,3.5 10,7 Q7,6.5 6,5.5Z" fill="#F06292" opacity="0.85"/>
  <path d="M14,5.5 Q12,3.5 10,7 Q13,6.5 14,5.5Z" fill="#E91E63" opacity="0.8"/>
  <path d="M6.5,9 Q7.5,6.5 10,7 Q7.5,8.5 6.5,9Z" fill="#F48FB1" opacity="0.75"/>
  <path d="M13.5,9 Q12.5,6.5 10,7 Q12.5,8.5 13.5,9Z" fill="#EC407A" opacity="0.75"/>
  <!-- Center -->
  <circle cx="10" cy="7" r="1.8" fill="#FFEB3B"/>
  <circle cx="10" cy="6.6" r="0.9" fill="#FFF176" opacity="0.7"/>
</svg>
