<svg xmlns="http://www.w3.org/2000/svg" viewBox="0 0 60 100" width="60" height="100">
  <defs>
    <linearGradient id="trunk" x1="0" y1="0" x2="1" y2="0">
      <stop offset="0%" stop-color="#6B4226"/>
      <stop offset="40%" stop-color="#8B5E3C"/>
      <stop offset="100%" stop-color="#5A3520"/>
    </linearGradient>
    <linearGradient id="f1" x1="0" y1="0" x2="0" y2="1">
      <stop offset="0%" stop-color="#2D7D3E"/>
      <stop offset="100%" stop-color="#1A5C28"/>
    </linearGradient>
    <linearGradient id="f2" x1="0.2" y1="0" x2="0.8" y2="1">
      <stop offset="0%" stop-color="#3A9A4D"/>
      <stop offset="100%" stop-color="#2A7838"/>
    </linearGradient>
  </defs>
  <!-- Trunk -->
  <rect x="26" y="62" width="8" height="34" rx="2" fill="url(#trunk)"/>
  <!-- Trunk detail -->
  <line x1="30" y1="68" x2="30" y2="92" stroke="#5A3520" stroke-width="0.8" opacity="0.3"/>
  <!-- Layer 1 (bottom, widest) -->
  <path d="M30,25 L8,68 Q16,66 22,67 L14,65 Q20,63 26,64 L30,25Z" fill="url(#f1)"/>
  <path d="M30,25 L52,68 Q44,66 38,67 L46,65 Q40,63 34,64 L30,25Z" fill="url(#f1)"/>
  <polygon points="30,25 8,68 52,68" fill="url(#f1)"/>
  <!-- Layer 2 (middle) -->
  <polygon points="30,15 13,52 47,52" fill="url(#f2)"/>
  <!-- Layer 3 (top, narrowest) -->
  <polygon points="30,2 18,38 42,38" fill="#3DA854"/>
  <!-- Highlight -->
  <polygon points="30,2 24,25 30,18" fill="#4EC463" opacity="0.4"/>
  <polygon points="30,15 21,40 30,32" fill="#4ABF58" opacity="0.3"/>
  <!-- Snow/light tip -->
  <circle cx="30" cy="3" r="2" fill="#FFFFFF" opacity="0.15"/>
</svg>
